<?xml version="1.0" encoding="UTF-8"?>
<svg width="14px" height="14px" viewBox="0 0 14 14" version="1.1" xmlns="http://www.w3.org/2000/svg" xmlns:xlink="http://www.w3.org/1999/xlink">
    <!-- Generator: Sketch 52.5 (67469) - http://www.bohemiancoding.com/sketch -->
    <title>形状</title>
    <desc>Created with Sketch.</desc>
    <g id="组件" stroke="none" stroke-width="1" fill="none" fill-rule="evenodd">
        <g id="学习界面-有home" transform="translate(-361.000000, -24.000000)" fill="#666666" fill-rule="nonzero">
            <g id="小nav">
                <g id="分组-5" transform="translate(354.000000, 18.000000)">
                    <g id="分组-3">
                        <g id="分组-2" transform="translate(7.000000, 3.000000)">
                            <g id="模块" transform="translate(0.000000, 3.000000)">
                                <path d="M0.476285169,0 L5.45965319,0 C5.72527323,0 5.93939394,0.214106779 5.93939394,0.476285169 L5.93939394,5.45995973 C5.93939394,5.72527323 5.72528716,5.93939394 5.45965319,5.93939394 L0.476285169,5.93939394 C0.217590229,5.93939394 0,5.72528716 0,5.45995973 L0,0.476285169 C0,0.214106779 0.217590229,0 0.476285169,0 Z M4.75151515,1.18787879 L1.18787879,1.18787879 L1.18787879,4.75151515 L4.75151515,4.75151515 L4.75151515,1.18787879 Z M12.8121212,1.18787879 L9.24848485,1.18787879 L9.24848485,4.75151515 L12.8121212,4.75151515 L12.8121212,1.18787879 Z M8.54293235,0 L13.5173397,0 C13.7826637,0 14,0.214106276 14,0.476284052 L14,5.45997479 C14,5.72527373 13.7826637,5.93939394 13.5173397,5.93939394 L8.54293235,5.93939394 C8.27792846,5.93939394 8.06060606,5.72528766 8.06060606,5.45996086 L8.06060606,0.476284052 C8.06060606,0.214106276 8.27794237,0 8.54293235,0 Z M1.18787879,12.8121212 L4.75151515,12.8121212 L4.75151515,9.24848485 L1.18787879,9.24848485 L1.18787879,12.8121212 Z M5.45964038,14 L0.476284052,14 C0.217589718,14 0,13.7860177 0,13.5208446 L0,8.54006786 C0,8.28180185 0.217589718,8.06060606 0.476284052,8.06060606 L5.45965431,8.06060606 C5.72527373,8.06060606 5.93939394,8.28181578 5.93939394,8.54006786 L5.93939394,13.5208446 C5.93939394,13.7859899 5.72528766,14 5.45965431,14 L5.45964038,14 Z M13.5173397,14 L8.54293235,14 C8.27792846,14 8.06060606,13.7860187 8.06060606,13.5208468 L8.06060606,8.54006561 C8.06060606,8.28181474 8.27794237,8.06060606 8.54291843,8.06060606 L13.5173397,8.06060606 C13.7826637,8.06060606 14,8.28182867 14,8.54006561 L14,13.5208329 C14,13.7859769 13.7826637,14 13.5173397,14 Z M9.24848485,12.8121212 L12.8121212,12.8121212 L12.8121212,9.24848485 L9.24848485,9.24848485 L9.24848485,12.8121212 Z" id="形状"></path>
                            </g>
                        </g>
                    </g>
                </g>
            </g>
        </g>
    </g>
</svg>