<svg xmlns="http://www.w3.org/2000/svg" width="20" height="20" viewBox="0 0 20 20">
    <g fill="#C6C6C6" fill-rule="evenodd">
        <path d="M13.916 14.12a.697.697 0 0 1 .06-.067l1.362-1.354a.678.678 0 0 1 .964.004.687.687 0 0 1-.005.97l-1.216 1.21a.698.698 0 0 1-.056.063L13.663 16.3c-.128.127-.3.199-.481.2a.687.687 0 0 1-.48-1.175l1.214-1.205z"/>
        <path d="M15.08 14.117l1.217 1.21a.687.687 0 0 1-.476 1.173.678.678 0 0 1-.483-.199l-1.363-1.354a.697.697 0 0 1-.059-.067l-1.213-1.205a.687.687 0 0 1 .479-1.175c.18.001.353.073.48.2l1.363 1.354c.02.02.039.042.056.063zM16.847 6.5h-2.846c-1.377 0-2.501-1.135-2.501-2.526V1.16a.657.657 0 0 1 .652-.66c.36 0 .653.297.653.659v2.814c0 .666.536 1.208 1.196 1.208h2.846a.657.657 0 0 1 .653.66.652.652 0 0 1-.653.659z"/>
        <path d="M9.39 17.5H2.975C1.611 17.5.5 16.46.5 15.182V2.818C.5 1.54 1.611.5 2.974.5h8.88c.359.002.647.273.646.605.001.332-.287.602-.646.605H2.977c-.652 0-1.184.496-1.184 1.108v12.364c0 .61.532 1.108 1.184 1.108h6.418c.352.013.629.281.628.607-.001.326-.28.592-.632.603z"/>
        <path fill-rule="nonzero" d="M16.923 9.456c-.32-.003-.578-.28-.577-.622v-3.08l-3.933-4.19a.655.655 0 0 1-.006-.878.555.555 0 0 1 .406-.186c.153-.001.3.063.409.179L17.5 5.23v3.6a.642.642 0 0 1-.167.44.564.564 0 0 1-.41.185zm-6.17-1.42H6.078c-.32-.002-.579-.281-.577-.623 0-.342.26-.622.577-.622h4.677c.32.003.578.28.577.622.001.342-.257.62-.577.623zM7.988 11.5h-1.91c-.32-.002-.578-.28-.577-.622-.001-.341.257-.62.577-.622h1.91c.32.002.578.28.577.622a.64.64 0 0 1-.167.439.562.562 0 0 1-.41.183zM14 19.5A5.506 5.506 0 0 1 8.5 14c0-3.032 2.468-5.5 5.5-5.5s5.5 2.467 5.5 5.5-2.468 5.5-5.5 5.5zm0-9.653a4.156 4.156 0 0 0-4.151 4.15A4.158 4.158 0 0 0 14 18.152 4.155 4.155 0 0 0 18.15 14 4.157 4.157 0 0 0 14 9.846z"/>
    </g>
</svg>
