<svg xmlns="http://www.w3.org/2000/svg" width="24" height="24" viewBox="0 0 24 24">
    <path fill="#C6C6C6" fill-rule="evenodd" stroke="#C6C6C6" stroke-width=".2" d="M16.695 9.062c3.824 0 7.055 2.826 7.055 6.17 0 1.37-.273 3.148-2.392 4.734l-.134.103.062.846a1.386 1.386 0 0 1-.7 1.308 1.369 1.369 0 0 1-1.476-.082c-.407-.294-.93-.65-1.254-.849-.34.06-.744.111-1.161.111-3.104 0-5.741-1.759-6.688-4.193-.833.177-1.913.188-1.93.188-.845 0-1.538-.142-2.272-.292l-.062-.013L3.58 18.17a1.013 1.013 0 0 1-1.106-.136 1.015 1.015 0 0 1-.303-1.09l.476-1.425C.914 14.107 0 12.346 0 10.4 0 6.539 3.624 3.4 8.078 3.4c3.576 0 6.943 2.462 7.919 5.693.23-.02.462-.03.698-.03zm-8.617 6.952c.436 0 1.141-.077 1.587-.149a5.43 5.43 0 0 1-.037-.633c0-2.773 2.107-5.124 4.997-5.899-.796-2.285-3.352-4.549-6.547-4.549-3.695 0-6.701 2.52-6.701 5.615 0 1.631.86 3.123 2.485 4.312a.694.694 0 0 1 .248.78l-.35 1.045 1.582-.788a.673.673 0 0 1 .44-.058l.293.059c.727.148 1.296.265 2.003.265zm12.445 2.851c1.513-1.132 1.85-2.317 1.85-3.633 0-2.594-2.6-4.786-5.678-4.786-3.138 0-5.69 2.147-5.69 4.786 0 2.64 2.552 4.787 5.69 4.787a6.216 6.216 0 0 0 1.339-.172c.258 0 1.878 1.169 1.878 1.169l-.115-1.594.726-.557zm-7.46-4.777a1.188 1.188 0 1 1 2.375 0 1.188 1.188 0 0 1-2.376 0zm4.75 0a1.188 1.188 0 1 1 2.375 0 1.188 1.188 0 0 1-2.375 0zM3.563 8.15a1.187 1.187 0 1 1 2.374 0 1.187 1.187 0 0 1-2.375 0zm5.937 0a1.188 1.188 0 1 1 2.375 0 1.188 1.188 0 0 1-2.375 0z"/>
</svg>
